#!Matlab matrix to amc conversion
:FULLY-SPECIFIED
:DEGREES
16
root 9.192140 16.357400 -29.724600 2.252627 1.634016 0.359205
lowerback 5.283490 -1.392662 -3.111659
upperback 2.174351 -2.016510 0.880473
thorax -0.588950 -1.014707 2.758381
lowerneck -12.865748 2.629545 -1.101518
upperneck 4.263299 3.737658 -2.032131
head 3.791532 1.774547 -0.269109
rclavicle -0.000000 0.000000
rhumerus -41.982321 -8.821597 -80.115709
rradius 21.532541
rwrist -5.064989
rhand -17.268470 17.004214
rfingers 7.125020
rthumb 8.960778 -12.710748
lclavicle -0.000000 0.000000
lhumerus -26.006099 -3.495386 87.620293
lradius 58.376736
lwrist 22.611596
lhand -21.321017 18.720205
lfingers 7.125020
lthumb 5.068300 48.523829
rfemur -28.295067 9.828075 14.729043
rtibia 29.497053
rfoot -13.931114 -13.751153
rtoes -11.557247
lfemur 7.001978 -4.928432 -30.273943
ltibia 17.432687
lfoot -16.984371 7.270800
ltoes -5.839039
17
root 9.191770 16.245600 -29.440800 1.972290 1.634016 0.064900
lowerback 4.998081 -1.584011 -3.192738
upperback 2.080793 -2.257516 1.052279
thorax -0.494960 -1.138696 2.974702
lowerneck -13.152916 2.609440 -1.176429
upperneck 4.507712 3.748521 -2.238264
head 3.931823 1.764961 -0.320423
rclavicle -0.000000 0.000000
rhumerus -43.367099 -11.405792 -77.545134
rradius 20.076892
rwrist -2.416987
rhand -17.057540 16.607122
rfingers 7.125020
rthumb 9.169585 -13.086490
lclavicle -0.000000 0.000000
lhumerus -26.850288 -3.261427 87.905024
lradius 58.550653
lwrist 22.127360
lhand -21.166327 18.665407
lfingers 7.125020
lthumb 5.216531 48.471121
rfemur -28.292366 8.798029 15.473306
rtibia 27.205926
rfoot -13.433767 -13.673655
rtoes -10.715426
lfemur 9.801833 -4.872267 -30.040507
ltibia 16.386131
lfoot -15.681382 6.950132
ltoes -8.943479
18
root 9.208550 16.156600 -29.151500 1.799397 1.634016 -0.055277
lowerback 4.720404 -1.757232 -3.232658
upperback 1.986162 -2.476588 1.200932
thorax -0.416766 -1.251538 3.160800
lowerneck -13.420382 2.589132 -1.238594
upperneck 4.760458 3.758906 -2.438703
head 4.075128 1.754990 -0.370828
rclavicle -0.000000 0.000000
rhumerus -44.515421 -13.625177 -75.272868
rradius 18.735645
rwrist -0.007246
rhand -16.849129 16.262494
rfingers 7.125020
rthumb 9.375975 -13.399456
lclavicle -0.000000 0.000000
lhumerus -27.649997 -3.003372 88.170625
lradius 58.632017
lwrist 21.637219
lhand -20.994620 18.641273
lfingers 7.125020
lthumb 5.381500 48.448780
rfemur -28.259826 8.202577 16.065098
rtibia 26.406750
rfoot -12.949227 -13.744161
rtoes -9.943701
lfemur 12.276398 -4.818461 -29.814705
ltibia 15.846034
lfoot -14.603528 6.639324
ltoes -11.404569
19
root 9.222000 16.080900 -28.855000 1.679868 1.634016 -0.125240
lowerback 4.446467 -1.919713 -3.238279
upperback 1.887660 -2.682034 1.342755
thorax -0.351726 -1.357345 3.329637
lowerneck -13.684758 2.568364 -1.290934
upperneck 5.024007 3.768948 -2.640711
head 4.223056 1.744513 -0.424055
rclavicle -0.000000 0.000000
rhumerus -45.550075 -15.729688 -73.093838
rradius 17.448561
rwrist 2.336443
rhand -16.639470 15.884621
rfingers 7.125020
rthumb 9.583674 -13.746818
lclavicle -0.000000 0.000000
lhumerus -28.495022 -2.716697 88.422433
lradius 58.624082
lwrist 21.131769
lhand -20.801156 18.646907
lfingers 7.125020
lthumb 5.567761 48.455966
rfemur -28.196148 7.896350 16.665301
rtibia 26.308166
rfoot -12.366530 -13.974705
rtoes -9.107560
lfemur 14.571011 -4.763166 -29.573848
ltibia 15.703490
lfoot -13.605811 6.334909
ltoes -13.651890
20
root 9.232280 16.013400 -28.551200 1.576315 1.634016 -0.217126
lowerback 4.172332 -2.078387 -3.210566
upperback 1.782372 -2.881649 1.493322
thorax -0.297639 -1.459976 3.492968
lowerneck -13.962462 2.546876 -1.335911
upperneck 5.300933 3.778780 -2.851611
head 4.377266 1.733404 -0.484043
rclavicle -0.000000 0.000000
rhumerus -46.581695 -17.956324 -70.811384
rradius 16.157832
rwrist 4.781568
rhand -16.424773 15.379528
rfingers 7.125020
rthumb 9.796435 -14.236424
lclavicle -0.000000 0.000000
lhumerus -29.480246 -2.396375 88.665509
lradius 58.526530
lwrist 20.601310
lhand -20.580594 18.682517
lfingers 7.125020
lthumb 5.780458 48.492948
rfemur -28.098788 7.804592 17.437083
rtibia 26.812557
rfoot -11.552239 -14.404639
rtoes -8.061261
lfemur 16.820442 -4.702429 -29.293736
ltibia 15.929756
lfoot -12.554013 6.033490
ltoes -16.077708
21
root 9.239730 15.970900 -28.241000 1.831605 1.634016 -0.035020
lowerback 4.131743 -1.972285 -1.838643
upperback 1.641961 -2.686548 1.885073
thorax -0.469712 -1.357045 3.160844
lowerneck -14.032358 2.574976 -1.188729
upperneck 5.533899 3.813931 -2.980685
head 4.494283 1.738974 -0.561271
rclavicle -0.000000 0.000000
rhumerus -45.998886 -18.442339 -70.503332
rradius 16.091639
rwrist 4.875913
rhand -16.457423 15.063128
rfingers 7.125020
rthumb 9.764508 -14.579944
lclavicle -0.000000 0.000000
lhumerus -31.191284 0.068626 88.305977
lradius 53.110161
lwrist 19.349474
lhand -19.914354 19.792216
lfingers 7.125020
lthumb 6.423915 49.566058
rfemur -26.235579 7.734396 19.848455
rtibia 29.956415
rfoot -11.426423 -13.220466
rtoes -3.865549
lfemur 13.719293 -3.626229 -27.018286
ltibia 25.565198
lfoot -6.726092 5.200898
ltoes -19.542435
22
root 9.241850 15.946000 -27.925100 1.996871 1.634016 0.036683
lowerback 4.090376 -1.865209 -0.654124
upperback 1.507830 -2.492245 2.239948
thorax -0.632920 -1.255316 2.847032
lowerneck -14.094492 2.600259 -1.060960
upperneck 5.760339 3.842818 -3.046788
head 4.608290 1.743023 -0.604755
rclavicle -0.000000 0.000000
rhumerus -45.411463 -18.864291 -70.251033
rradius 16.042038
rwrist 4.920266
rhand -16.489017 14.850592
rfingers 7.125020
rthumb 9.733768 -14.810702
lclavicle -0.000000 0.000000
lhumerus -32.687262 2.475864 87.936412
lradius 47.976595
lwrist 18.133183
lhand -19.265071 20.889784
lfingers 7.125020
lthumb 7.051314 50.627143
rfemur -24.469757 7.647889 22.028844
rtibia 32.104510
rfoot -11.595884 -12.205108
rtoes -0.630574
lfemur 10.668980 -2.662027 -24.969857
ltibia 34.373235
lfoot -1.344010 4.403647
ltoes -21.855239
23
root 9.242890 15.925900 -27.604900 2.127222 1.634016 0.096629
lowerback 4.047619 -1.750947 0.514093
upperback 1.373980 -2.288694 2.585115
thorax -0.794296 -1.149331 2.533021
lowerneck -14.157558 2.623251 -0.941720
upperneck 5.982668 3.866359 -3.061737
head 4.720745 1.745642 -0.627583
rclavicle -0.000000 0.000000
rhumerus -44.770889 -19.249494 -70.043170
rradius 16.006998
rwrist 4.916499
rhand -16.520391 14.681213
rfingers 7.125020
rthumb 9.703406 -14.994618
lclavicle -0.000000 0.000000
lhumerus -34.128971 4.902506 87.541892
lradius 42.807554
lwrist 16.908008
lhand -18.612492 21.999384
lfingers 7.125020
lthumb 7.682198 51.699366
rfemur -22.673107 7.534393 24.208483
rtibia 33.916224
rfoot -12.094565 -11.159413
rtoes 2.386531
lfemur 7.390163 -1.670947 -22.913078
ltibia 43.261185
lfoot 4.100614 3.624252
ltoes -23.879519
24
root 9.243090 15.943100 -27.273700 2.007760 1.634016 0.105562
lowerback 4.489454 -1.511731 1.352237
upperback 1.462277 -1.916872 2.598561
thorax -0.985303 -0.966563 2.081627
lowerneck -14.280365 2.329288 -1.037666
upperneck 5.971940 3.483324 -2.594852
head 4.739817 1.574036 -0.485791
rclavicle -0.000000 0.000000
rhumerus -41.772872 -17.643843 -72.821139
rradius 17.361962
rwrist 2.105627
rhand -16.973352 14.642826
rfingers 7.125020
rthumb 9.266603 -15.057599
lclavicle -0.000000 0.000000
lhumerus -34.539965 8.083138 85.825953
lradius 35.975903
lwrist 15.113065
lhand -17.562357 22.995776
lfingers 7.125020
lthumb 8.691871 52.645447
rfemur -19.627000 6.623851 25.716093
rtibia 33.241541
rfoot -13.650685 -10.313112
rtoes 1.981879
lfemur 0.464124 -0.458804 -21.378241
ltibia 53.294520
lfoot 5.620351 7.902668
ltoes -18.030803
